<?xml version="1.0" encoding="UTF-8"?>
<!DOCTYPE svg PUBLIC "-//W3C//DTD SVG 1.1//EN" "http://www.w3.org/Graphics/SVG/1.1/DTD/svg11.dtd">
<svg xmlns="http://www.w3.org/2000/svg" version="1.1" width="408px" height="370px" style="shape-rendering:geometricPrecision; text-rendering:geometricPrecision; image-rendering:optimizeQuality; fill-rule:evenodd; clip-rule:evenodd" xmlns:xlink="http://www.w3.org/1999/xlink">
<g><path style="opacity:0.988" fill="#00bafa" d="M 184.5,-0.5 C 196.167,-0.5 207.833,-0.5 219.5,-0.5C 262.787,2.55787 297.62,21.2245 324,55.5C 342.545,84.1699 351.379,115.67 350.5,150C 349.871,165.909 348.705,181.742 347,197.5C 350.216,204.044 354.216,210.044 359,215.5C 371.413,227.251 384.413,238.251 398,248.5C 401.976,253.466 405.142,258.8 407.5,264.5C 407.5,266.833 407.5,269.167 407.5,271.5C 402.739,277.553 396.406,281.053 388.5,282C 368.765,284.992 349.765,282.492 331.5,274.5C 326.682,291.766 321.848,309.1 317,326.5C 311.989,340.034 304.823,352.201 295.5,363C 285.884,366.02 276.217,368.187 266.5,369.5C 256.833,369.5 247.167,369.5 237.5,369.5C 226.143,367.961 214.81,365.628 203.5,362.5C 191.199,365.762 178.865,368.095 166.5,369.5C 158.833,369.5 151.167,369.5 143.5,369.5C 132.736,368.502 122.069,366.335 111.5,363C 94.329,335.807 82.829,306.307 77,274.5C 51.6896,287.177 26.8563,286.343 2.5,272C 1.36362,270.855 0.363622,269.688 -0.5,268.5C -0.5,265.833 -0.5,263.167 -0.5,260.5C 3.17577,254.311 7.84244,248.811 13.5,244C 27.4819,234.918 39.9819,224.085 51,211.5C 55.706,204.921 59.206,197.755 61.5,190C 50.4157,144.326 56.5824,101.159 80,60.5C 105.487,24.3341 140.32,4.00072 184.5,-0.5 Z M 151.5,105.5 C 176.988,103.721 192.321,115.221 197.5,140C 195.816,143.699 193.316,146.865 190,149.5C 188.146,152.652 188.479,155.652 191,158.5C 201.809,171.313 210.809,169.979 218,154.5C 218.667,153.167 218.667,151.833 218,150.5C 214.632,147.631 211.798,144.298 209.5,140.5C 216.294,114.092 233.294,102.592 260.5,106C 273.725,106.348 282.892,112.515 288,124.5C 289.156,128.123 290.156,131.789 291,135.5C 295.954,201.991 287.121,266.657 264.5,329.5C 240.037,326.32 219.703,333.986 203.5,352.5C 187.724,333.957 167.724,326.624 143.5,330.5C 127.98,284.053 118.48,236.386 115,187.5C 114.333,173.833 114.333,160.167 115,146.5C 115.622,131.084 122.122,118.917 134.5,110C 140.087,107.688 145.754,106.188 151.5,105.5 Z M 152.5,339.5 C 166.895,339.627 179.229,344.627 189.5,354.5C 167.557,360.91 145.557,361.077 123.5,355C 132.11,347.697 141.777,342.531 152.5,339.5 Z M 246.5,339.5 C 261.036,339.509 273.369,344.676 283.5,355C 261.146,360.911 238.813,360.911 216.5,355C 225.332,347.418 235.332,342.252 246.5,339.5 Z"/></g>
<g><path style="opacity:0.911" fill="#01b9fa" d="M 152.5,129.5 C 161.941,129.119 168.774,133.119 173,141.5C 174.59,143.65 175.257,145.983 175,148.5C 166.778,141.869 157.611,140.035 147.5,143C 143.809,145.019 140.142,146.686 136.5,148C 139.232,139.445 144.565,133.278 152.5,129.5 Z"/></g>
<g><path style="opacity:0.895" fill="#00b9fa" d="M 247.5,129.5 C 254.88,128.793 260.714,131.46 265,137.5C 267.087,140.673 268.921,144.006 270.5,147.5C 270.167,147.833 269.833,148.167 269.5,148.5C 257.167,139.167 244.833,139.167 232.5,148.5C 233.982,139.654 238.982,133.32 247.5,129.5 Z"/></g>
</svg>
